. 
 
http://www.torrenting.com          :     Once & For all ;)


               www . Torrenting . Com 

(((((((((((((= Enjoy No RAR releases =))))))))))))))))))))


...................................NFO:....................................

.[img]http://img338.imageshack.us/img338/2567/changeup.jpg[/img]

The.Change-Up.UNRATED.2011.BRRip.XviD.AC3-EMBER
 
http://www.imdb.com/title/tt1488555

Plot:
 Growing up together, Mitch (Ryan Reynolds) and Dave (Jason Bateman) were inseparable best friends, 
but as the years have passed they've slowly drifted apart. While Dave is an overworked lawyer, 
husband and father of three, Mitch has remained a single, quasi-employed man-child who has never met 
a responsibility he liked

Source                           : 720p.Bluray.x264-MHD Thanks

General
Format                           : AVI
Format/Info                      : Audio Video Interleave
Format profile                   : OpenDML
File size                        : 2.00 GiB
Duration                         : 1h 58mn
Overall bit rate                 : 2 426 Kbps
Writing application              : VirtualDubMod 1.5.10.2 (build 2540/release)
Writing library                  : VirtualDubMod build 2540/release

Video
ID                               : 0
Format                           : MPEG-4 Visual
Format profile                   : Advanced Simple@L5
Format settings, BVOP            : 2
Format settings, QPel            : No
Format settings, GMC             : No warppoints
Format settings, Matrix          : Default (H.263)
Muxing mode                      : Packed bitstream
Codec ID                         : XVID
Codec ID/Hint                    : XviD
Duration                         : 1h 58mn
Bit rate                         : 2 030 Kbps
Width                            : 720 pixels
Height                           : 304 pixels
Display aspect ratio             : 2.35:1
Frame rate                       : 23.976 fps
Color space                      : YUV
Chroma subsampling               : 4:2:0
Bit depth                        : 8 bits
Scan type                        : Progressive
Compression mode                 : Lossy
Bits/(Pixel*Frame)               : 0.387
Stream size                      : 1.68 GiB (84%)
Writing library                  : XviD 64

Audio
ID                               : 1
Format                           : AC-3
Format/Info                      : Audio Coding 3
Mode extension                   : CM (complete main)
Codec ID                         : 2000
Duration                         : 1h 58mn
Bit rate mode                    : Constant
Bit rate                         : 384 Kbps
Channel(s)                       : 6 channels
Channel positions                : Front: L C R, Side: L R, LFE
Sampling rate                    : 48.0 KHz
Bit depth                        : 16 bits
Compression mode                 : Lossy
Stream size                      : 325 MiB (16%)
Alignment                        : Split accross interleaves
Interleave, duration             : 42 ms (1.00 video frame)
Interleave, preload duration     : 500 ms

Screens
[img]http://img542.imageshack.us/img542/2707/95151356.png[/img]
[img]http://img855.imageshack.us/img855/5232/22694255.png[/img]
[img]http://img256.imageshack.us/img256/9378/48287257.png[/img]
[img]http://img824.imageshack.us/img824/6035/38524568.png[/img]
[img]http://img194.imageshack.us/img194/6762/66501182.png[/img]

Greetz to

SHiRK, SHK, LKRG, UnKnOwN, IMAGiNE, SiC, BHRG, TaRiQ786, FLAWL3SS, Rx

SAMURAi, ViSUALiSE, RemixHD, iNSANE, DTRG. Hive, ILLUMINATI, U.S.M

MiSTERE

And to all other groups past and present

Got something to offer?

then you should know where to find us